<svg viewBox="0 0 396 208" data-background-color="#7209b7" preserveAspectRatio="xMidYMid meet" xmlns="http://www.w3.org/2000/svg">
    <svg width="395.52" viewBox="2.5 -38.75 96.69 50.8"
         height="207.780930713547" data-palette-color="#ffffff">
        <path d="M17.5 0.85L17.5 0.85Q12.95 0.85 9.58-0.88 6.2-2.6 4.35-5.88 2.5-9.15 2.5-13.8L2.5-13.8Q2.5-17.95 3.93-21.6 5.35-25.25 7.98-28.03 10.6-30.8 14.15-32.38 17.7-33.95 21.95-33.95L21.95-33.95Q24.45-33.95 26.7-33.4 28.95-32.85 31.3-31.55L31.3-31.55 30.1-23.9 28.75-23.9 27.5-28.75Q27-30.85 25.73-31.65 24.45-32.45 22.25-32.45L22.25-32.45Q18.4-32.45 15.48-30.08 12.55-27.7 10.93-23.48 9.3-19.25 9.3-13.7L9.3-13.7Q9.3-7.65 11.78-4.13 14.25-0.6 18.8-0.6L18.8-0.6Q20.7-0.6 21.83-1.33 22.95-2.05 23.8-3.5L23.8-3.5 27-9.1 28.35-9.1 27.15-1.5Q25.15-0.5 22.95 0.18 20.75 0.85 17.5 0.85ZM37.55 0.7L37.55 0.7Q35.5 0.7 33.87-0.8 32.25-2.3 32.25-5.9L32.25-5.9Q32.25-8.55 33.27-11.25 34.3-13.95 36.02-16.38 37.75-18.8 39.9-20.68 42.05-22.55 44.32-23.65 46.6-24.75 48.65-24.75L48.65-24.75Q49.65-24.75 50.52-24.35 51.4-23.95 52.15-23.3L52.15-23.3 55.9-24.95 56.45-24.6 52.2-5.95Q51.8-4.35 51.8-3.6L51.8-3.6Q51.8-2.55 52.8-2.55L52.8-2.55Q53.5-2.55 54.35-3.13 55.2-3.7 56.25-4.7L56.25-4.7 56.85-4.1Q56.1-2.95 55-1.85 53.9-0.75 52.52-0.03 51.15 0.7 49.65 0.7L49.65 0.7Q48.1 0.7 47.05-0.28 46-1.25 46-3.3L46-3.3Q46-4 46.1-4.8L46.1-4.8Q44.05-2.5 41.8-0.9 39.55 0.7 37.55 0.7ZM38.05-8.2L38.05-8.2Q38.05-5.65 38.87-4.53 39.7-3.4 41.1-3.4L41.1-3.4Q42.3-3.4 43.55-4.17 44.8-4.95 46.35-6.5L46.35-6.5Q46.4-6.8 46.5-7.3L46.5-7.3 49.6-21.4Q48.95-22.05 48.1-22.33 47.25-22.6 46.5-22.6L46.5-22.6Q44.45-22.6 42-20.05L42-20.05Q40.25-18.15 39.15-14.88 38.05-11.6 38.05-8.2ZM55.2 12.05L55.2 12.05Q53.2 12.05 51.57 11.15 49.95 10.25 49.95 8.55L49.95 8.55Q49.95 7.3 50.77 6.58 51.6 5.85 52.7 5.85L52.7 5.85Q53.85 5.85 54.8 6.45 55.75 7.05 56.55 8.45L56.55 8.45 56.9 9.25Q57.3 9.85 57.75 9.88 58.2 9.9 58.55 9.3L58.55 9.3Q58.75 8.9 58.95 8.45 59.15 8 59.4 7.35L59.4 7.35Q60.1 5.7 60.67 3.3 61.25 0.9 61.75-2.15L61.75-2.15Q62.5-7.05 63.22-12.1 63.95-17.15 64.75-22.55L64.75-22.55 60.6-22.55 60.8-23.55 62.85-23.8Q64.05-23.9 64.65-24.6 65.25-25.3 65.6-26.55L65.6-26.55Q66.95-30.9 69.95-33.2 72.95-35.5 77.3-35.5L77.3-35.5Q79.75-35.5 81.25-34.48 82.75-33.45 82.75-31.8L82.75-31.8Q82.75-30.55 81.92-29.78 81.1-29 79.95-29L79.95-29Q77.75-29 76.05-32L76.05-32 75.85-32.55Q75.4-33.45 74.8-33.48 74.2-33.5 73.8-32.8L73.8-32.8Q72.85-31.7 72.15-29.6 71.45-27.5 70.85-24L70.85-24 76.95-24 76.65-22.4 70.6-22.5Q69.85-17.35 69.07-12.15 68.3-6.95 67.4-2.15L67.4-2.15Q66.7 1.6 65.55 4.35 64.4 7.1 62.5 9L62.5 9Q60.95 10.55 59.07 11.3 57.2 12.05 55.2 12.05ZM84.29 0.7L84.29 0.7Q80.59 0.7 78.27-1.7 75.94-4.1 75.94-8.65L75.94-8.65Q75.94-11.8 77.04-14.7 78.14-17.6 80.07-19.88 81.99-22.15 84.59-23.45 87.19-24.75 90.19-24.75L90.19-24.75Q93.29-24.75 94.92-23.35 96.54-21.95 96.54-19.6L96.54-19.6Q96.54-16.75 92.77-13.98 88.99-11.2 81.84-9.65L81.84-9.65Q81.99-6.4 83.39-4.9 84.79-3.4 87.24-3.4L87.24-3.4Q89.44-3.4 91.19-4.55 92.94-5.7 94.14-7.25L94.14-7.25 94.89-6.7Q93.89-4.8 92.32-3.1 90.74-1.4 88.74-0.35 86.74 0.7 84.29 0.7ZM89.69-23.05L89.69-23.05Q88.54-23.05 87.24-22.08 85.94-21.1 84.77-19.43 83.59-17.75 82.79-15.58 81.99-13.4 81.84-10.95L81.84-10.95Q87.44-12.6 89.72-15.05 91.99-17.5 91.99-20.25L91.99-20.25Q91.99-21.7 91.34-22.38 90.69-23.05 89.69-23.05ZM91.44-26.95L90.54-27.55Q91.24-29.6 91.94-31.6 92.64-33.6 93.29-35.6L93.29-35.6Q93.84-37.35 94.69-38.05 95.54-38.75 96.54-38.75L96.54-38.75Q97.59-38.75 98.39-38.1 99.19-37.45 99.19-36.3L99.19-36.3Q99.19-35.4 98.67-34.58 98.14-33.75 97.14-32.75L97.14-32.75Q95.69-31.25 94.29-29.83 92.89-28.4 91.44-26.95L91.44-26.95Z"
              opacity="1" transform="matrix(1,0,0,1,0,0)"
              fill="#ffffff" class="wordmark-text-0" id="text-0"></path>
    </svg>
</svg>