<svg width="600" height="600" viewBox="0 0 600 600" fill="none" xmlns="http://www.w3.org/2000/svg">
    <g clip-path="url(#clip0_2_21393)">
        <path d="M0 0H60V60H0V0Z" fill="#560BAD"/>
        <path d="M60 0V30H0L0 0L60 0Z" fill="#480CA8"/>
        <path d="M60 0H120V60H60V0Z" fill="#4361EE"/>
        <path d="M60 0H120L60 60V0Z" fill="#7209B7"/>
        <path d="M0 60H60V120H0V60Z" fill="#3A0CA3"/>
        <path d="M0 60H30V120H0V60Z" fill="#7209B7"/>
        <path d="M60 60H120V120H60V60Z" fill="#480CA8"/>
        <path d="M60 120V60L120 120H60Z" fill="#4CC9F0"/>
        <path d="M0 120H120V240H0V120Z" fill="#4361EE"/>
        <path d="M120 240C86.8629 240 60 213.137 60 180C60 146.863 86.8629 120 120 120V180V240Z" fill="#560BAD"/>
        <path d="M0 240H60V300H0V240Z" fill="#4CC9F0"/>
        <path d="M0 300C0 283.431 13.4315 270 30 270C46.5685 270 60 283.431 60 300H30H0Z" fill="#B5179E"/>
        <path d="M60 240H120V300H60V240Z" fill="#480CA8"/>
        <path d="M0 300H60V360H0V300Z" fill="#560BAD"/>
        <path d="M60 360H30V300H60V360Z" fill="#4CC9F0"/>
        <path d="M60 300H120V360H60V300Z" fill="#F72585"/>
        <path d="M120 360H60L120 300V360Z" fill="#3F37C9"/>
        <path d="M0 360H60V420H0V360Z" fill="#480CA8"/>
        <path d="M60 420C43.4315 420 30 406.569 30 390C30 373.431 43.4315 360 60 360V390V420Z" fill="#560BAD"/>
        <path d="M60 360H120V420H60V360Z" fill="#F72585"/>
        <path d="M120 420H60L120 360V420Z" fill="#4CC9F0"/>
        <path d="M0 420H60V480H0V420Z" fill="#3A0CA3"/>
        <path d="M0 420H60L0 480V420Z" fill="#560BAD"/>
        <path d="M60 420H120V480H60V420Z" fill="#4895EF"/>
        <path d="M120 420V480L60 420H120Z" fill="#3A0CA3"/>
        <path d="M0 480H60V540H0V480Z" fill="#B5179E"/>
        <path d="M60 480H120V540H60V480Z" fill="#4895EF"/>
        <path d="M60 540V480L120 540H60Z" fill="#4CC9F0"/>
        <path d="M0 540H60V600H0V540Z" fill="#4895EF"/>
        <path d="M0 600L0 570H60V600H0Z" fill="#7209B7"/>
        <path d="M60 540H120V600H60V540Z" fill="#480CA8"/>
        <path d="M120 600H60L120 540V600Z" fill="#560BAD"/>
        <path d="M120 0H240V120H120V0Z" fill="#560BAD"/>
        <path d="M240 0V60H120V0L240 0Z" fill="#B5179E"/>
        <path d="M120 120H180V180H120V120Z" fill="#3F37C9"/>
        <path d="M120 120C136.569 120 150 133.431 150 150C150 166.569 136.569 180 120 180V150V120Z" fill="#560BAD"/>
        <path d="M180 120H240V180H180V120Z" fill="#B5179E"/>
        <path d="M180 120H240L180 180V120Z" fill="#F72585"/>
        <path d="M120 180H180V240H120V180Z" fill="#480CA8"/>
        <path d="M120 240V180L180 240H120Z" fill="#B5179E"/>
        <path d="M180 180H240V240H180V180Z" fill="#7209B7"/>
        <path d="M120 240H180V300H120V240Z" fill="#560BAD"/>
        <path d="M180 300C163.431 300 150 286.569 150 270C150 253.431 163.431 240 180 240V270V300Z" fill="#7209B7"/>
        <path d="M180 240H240V300H180V240Z" fill="#B5179E"/>
        <path d="M240 300H210V240H240V300Z" fill="#F72585"/>
        <path d="M120 300H180V360H120V300Z" fill="#4361EE"/>
        <path d="M120 360C120 343.431 133.431 330 150 330C166.569 330 180 343.431 180 360H150H120Z" fill="#3F37C9"/>
        <path d="M180 300H240V360H180V300Z" fill="#4361EE"/>
        <path d="M240 300V360L180 300H240Z" fill="#560BAD"/>
        <path d="M120 360H180V420H120V360Z" fill="#3F37C9"/>
        <path d="M180 360H240V420H180V360Z" fill="#B5179E"/>
        <path d="M240 420C223.431 420 210 406.569 210 390C210 373.431 223.431 360 240 360V390V420Z" fill="#7209B7"/>
        <path d="M120 420H180V480H120V420Z" fill="#4895EF"/>
        <path d="M180 420H240V480H180V420Z" fill="#4CC9F0"/>
        <path d="M240 480H180L240 420V480Z" fill="#B5179E"/>
        <path d="M120 480H180V540H120V480Z" fill="#4361EE"/>
        <path d="M180 480V540L120 480H180Z" fill="#560BAD"/>
        <path d="M180 480H240V540H180V480Z" fill="#3A0CA3"/>
        <path d="M120 540H180V600H120V540Z" fill="#3A0CA3"/>
        <path d="M180 600H150V540H180V600Z" fill="#480CA8"/>
        <path d="M180 540H240V600H180V540Z" fill="#F72585"/>
        <path d="M240 0H300V60H240V0Z" fill="#B5179E"/>
        <path d="M240 0H270V60H240V0Z" fill="#560BAD"/>
        <path d="M300 0H360V60H300V0Z" fill="#480CA8"/>
        <path d="M240 60H300V120H240V60Z" fill="#B5179E"/>
        <path d="M240 120C240 103.431 253.431 90 270 90C286.569 90 300 103.431 300 120H270H240Z" fill="#480CA8"/>
        <path d="M300 60H360V120H300V60Z" fill="#4895EF"/>
        <path d="M360 60C360 76.5685 346.569 90 330 90C313.431 90 300 76.5685 300 60H330H360Z" fill="#7209B7"/>
        <path d="M240 120H360V240H240V120Z" fill="#3A0CA3"/>
        <path d="M240 240H360V360H240V240Z" fill="#4CC9F0"/>
        <path d="M240 240C273.137 240 300 266.863 300 300C300 333.137 273.137 360 240 360V300V240Z" fill="#7209B7"/>
        <path d="M240 360H300V420H240V360Z" fill="#F72585"/>
        <path d="M300 420H270V360H300V420Z" fill="#4895EF"/>
        <path d="M300 360H360V420H300V360Z" fill="#560BAD"/>
        <path d="M300 420V390H360V420H300Z" fill="#7209B7"/>
        <path d="M240 420H300V480H240V420Z" fill="#4895EF"/>
        <path d="M300 480C283.431 480 270 466.569 270 450C270 433.431 283.431 420 300 420V450V480Z" fill="#3F37C9"/>
        <path d="M300 420H360V480H300V420Z" fill="#480CA8"/>
        <path d="M240 480H360V600H240V480Z" fill="#B5179E"/>
        <path d="M360 600H300V480H360V600Z" fill="#4CC9F0"/>
        <path d="M360 0H480V120H360V0Z" fill="#7209B7"/>
        <path d="M360 120H480V240H360V120Z" fill="#F72585"/>
        <path d="M360 240H480V360H360V240Z" fill="#B5179E"/>
        <path d="M480 240C480 273.137 453.137 300 420 300C386.863 300 360 273.137 360 240H420H480Z" fill="#3F37C9"/>
        <path d="M360 360H420V420H360V360Z" fill="#560BAD"/>
        <path d="M360 420C360 403.431 373.431 390 390 390C406.569 390 420 403.431 420 420H390H360Z" fill="#4895EF"/>
        <path d="M420 360H480V420H420V360Z" fill="#F72585"/>
        <path d="M360 420H420V480H360V420Z" fill="#480CA8"/>
        <path d="M420 420H480V480H420V420Z" fill="#3A0CA3"/>
        <path d="M360 480H480V600H360V480Z" fill="#B5179E"/>
        <path d="M480 0H600V120H480V0Z" fill="#4361EE"/>
        <path d="M600 120C566.863 120 540 93.1371 540 60C540 26.8629 566.863 0 600 0V60V120Z" fill="#3A0CA3"/>
        <path d="M480 120H540V180H480V120Z" fill="#560BAD"/>
        <path d="M540 120H600V180H540V120Z" fill="#7209B7"/>
        <path d="M540 180C540 163.431 553.431 150 570 150C586.569 150 600 163.431 600 180H570H540Z" fill="#560BAD"/>
        <path d="M480 180H540V240H480V180Z" fill="#B5179E"/>
        <path d="M480 240V180L540 240H480Z" fill="#480CA8"/>
        <path d="M540 180H600V240H540V180Z" fill="#4895EF"/>
        <path d="M540 240C540 223.431 553.431 210 570 210C586.569 210 600 223.431 600 240H570H540Z" fill="#560BAD"/>
        <path d="M480 240H540V300H480V240Z" fill="#B5179E"/>
        <path d="M540 240V270H480V240H540Z" fill="#7209B7"/>
        <path d="M540 240H600V300H540V240Z" fill="#B5179E"/>
        <path d="M540 240H570V300H540V240Z" fill="#4CC9F0"/>
        <path d="M480 300H540V360H480V300Z" fill="#3A0CA3"/>
        <path d="M480 360V300L540 360H480Z" fill="#4895EF"/>
        <path d="M540 300H600V360H540V300Z" fill="#560BAD"/>
        <path d="M480 360H600V480H480V360Z" fill="#4895EF"/>
        <path d="M480 360H540V480H480V360Z" fill="#B5179E"/>
        <path d="M480 480H540V540H480V480Z" fill="#F72585"/>
        <path d="M540 480C540 496.569 526.569 510 510 510C493.431 510 480 496.569 480 480H510H540Z" fill="#480CA8"/>
        <path d="M540 480H600V540H540V480Z" fill="#4361EE"/>
        <path d="M480 540H540V600H480V540Z" fill="#480CA8"/>
        <path d="M540 540H600V600H540V540Z" fill="#B5179E"/>
        <path d="M600 540V600L540 540H600Z" fill="#560BAD"/>
        <path d="M0 0H60V60H0V0Z" fill="#4895EF"/>
        <path d="M0 0H60L0 60V0Z" fill="#4361EE"/>
        <path d="M60 0H120V60H60V0Z" fill="#F72585"/>
        <path d="M0 60H60V120H0V60Z" fill="#3A0CA3"/>
        <path d="M60 60H120V120H60V60Z" fill="#4361EE"/>
        <path d="M0 120H120V240H0V120Z" fill="#F72585"/>
        <path d="M0 240H60V300H0V240Z" fill="#480CA8"/>
        <path d="M60 240V270H0L0 240H60Z" fill="#3A0CA3"/>
        <path d="M60 240H120V300H60V240Z" fill="#B5179E"/>
        <path d="M60 300V240L120 300H60Z" fill="#7209B7"/>
        <path d="M0 300H60V360H0V300Z" fill="#480CA8"/>
        <path d="M0 300C16.5685 300 30 313.431 30 330C30 346.569 16.5685 360 0 360V330V300Z" fill="#B5179E"/>
        <path d="M60 300H120V360H60V300Z" fill="#4361EE"/>
        <path d="M60 360V300L120 360H60Z" fill="#F72585"/>
        <path d="M0 360H60V420H0V360Z" fill="#560BAD"/>
        <path d="M60 360H120V420H60V360Z" fill="#7209B7"/>
        <path d="M120 360V390H60V360H120Z" fill="#F72585"/>
        <path d="M0 420H60V480H0V420Z" fill="#4361EE"/>
        <path d="M0 480L0 420L60 480H0Z" fill="#3A0CA3"/>
        <path d="M60 420H120V480H60V420Z" fill="#F72585"/>
        <path d="M0 480H60V540H0V480Z" fill="#480CA8"/>
        <path d="M0 480H30V540H0V480Z" fill="#7209B7"/>
        <path d="M60 480H120V540H60V480Z" fill="#480CA8"/>
        <path d="M60 480C76.5685 480 90 493.431 90 510C90 526.569 76.5685 540 60 540V510V480Z" fill="#4CC9F0"/>
        <path d="M0 540H60V600H0V540Z" fill="#3F37C9"/>
        <path d="M60 540H120V600H60V540Z" fill="#3A0CA3"/>
        <path d="M120 540C120 556.569 106.569 570 90 570C73.4315 570 60 556.569 60 540H90H120Z" fill="#480CA8"/>
        <path d="M120 0H240V120H120V0Z" fill="#7209B7"/>
        <path d="M120 120H240V240H120V120Z" fill="#7209B7"/>
        <path d="M240 240H180V120H240V240Z" fill="#F72585"/>
        <path d="M120 240H240V360H120V240Z" fill="#B5179E"/>
        <path d="M240 360C206.863 360 180 333.137 180 300C180 266.863 206.863 240 240 240V300V360Z" fill="#4CC9F0"/>
        <path d="M120 360H180V420H120V360Z" fill="#4361EE"/>
        <path d="M120 420C120 403.431 133.431 390 150 390C166.569 390 180 403.431 180 420H150H120Z" fill="#B5179E"/>
        <path d="M180 360H240V420H180V360Z" fill="#7209B7"/>
        <path d="M240 420H180L240 360V420Z" fill="#F72585"/>
        <path d="M120 420H180V480H120V420Z" fill="#7209B7"/>
        <path d="M120 420H150V480H120V420Z" fill="#480CA8"/>
        <path d="M180 420H240V480H180V420Z" fill="#4CC9F0"/>
        <path d="M180 420H240L180 480V420Z" fill="#560BAD"/>
        <path d="M120 480H240V600H120V480Z" fill="#4895EF"/>
        <path d="M120 600V480L240 600H120Z" fill="#F72585"/>
        <path d="M240 0H300V60H240V0Z" fill="#3A0CA3"/>
        <path d="M300 0H360V60H300V0Z" fill="#4361EE"/>
        <path d="M240 60H300V120H240V60Z" fill="#B5179E"/>
        <path d="M300 120H270V60H300V120Z" fill="#F72585"/>
        <path d="M300 60H360V120H300V60Z" fill="#4895EF"/>
        <path d="M300 60H330V120H300V60Z" fill="#4CC9F0"/>
        <path d="M240 120H300V180H240V120Z" fill="#3A0CA3"/>
        <path d="M300 180H270V120H300V180Z" fill="#F72585"/>
        <path d="M300 120H360V180H300V120Z" fill="#3A0CA3"/>
        <path d="M300 120H330V180H300V120Z" fill="#4361EE"/>
        <path d="M240 180H300V240H240V180Z" fill="#480CA8"/>
        <path d="M300 180H360V240H300V180Z" fill="#7209B7"/>
        <path d="M300 240V210H360V240H300Z" fill="#3F37C9"/>
        <path d="M240 240H300V300H240V240Z" fill="#3F37C9"/>
        <path d="M240 240H300L240 300V240Z" fill="#4361EE"/>
        <path d="M300 240H360V300H300V240Z" fill="#480CA8"/>
        <path d="M300 240H330V300H300V240Z" fill="#560BAD"/>
        <path d="M240 300H300V360H240V300Z" fill="#4361EE"/>
        <path d="M300 300V360L240 300H300Z" fill="#4895EF"/>
        <path d="M300 300H360V360H300V300Z" fill="#4895EF"/>
        <path d="M360 360H330V300H360V360Z" fill="#4361EE"/>
        <path d="M240 360H300V420H240V360Z" fill="#4895EF"/>
        <path d="M240 420C240 403.431 253.431 390 270 390C286.569 390 300 403.431 300 420H270H240Z" fill="#F72585"/>
        <path d="M300 360H360V420H300V360Z" fill="#4361EE"/>
        <path d="M240 420H300V480H240V420Z" fill="#4CC9F0"/>
        <path d="M300 420H360V480H300V420Z" fill="#3A0CA3"/>
        <path d="M300 480V450H360V480H300Z" fill="#F72585"/>
        <path d="M240 480H300V540H240V480Z" fill="#480CA8"/>
        <path d="M240 480H300L240 540V480Z" fill="#4361EE"/>
        <path d="M300 480H360V540H300V480Z" fill="#4361EE"/>
        <path d="M240 540H300V600H240V540Z" fill="#7209B7"/>
        <path d="M240 540H300L240 600V540Z" fill="#F72585"/>
        <path d="M300 540H360V600H300V540Z" fill="#3F37C9"/>
        <path d="M360 0H420V60H360V0Z" fill="#F72585"/>
        <path d="M360 60V30H420V60H360Z" fill="#3F37C9"/>
        <path d="M420 0H480V60H420V0Z" fill="#4361EE"/>
        <path d="M480 0V60L420 0L480 0Z" fill="#3F37C9"/>
        <path d="M360 60H420V120H360V60Z" fill="#F72585"/>
        <path d="M360 120C360 103.431 373.431 90 390 90C406.569 90 420 103.431 420 120H390H360Z" fill="#480CA8"/>
        <path d="M420 60H480V120H420V60Z" fill="#7209B7"/>
        <path d="M420 120C420 103.431 433.431 90 450 90C466.569 90 480 103.431 480 120H450H420Z" fill="#4895EF"/>
        <path d="M360 120H480V240H360V120Z" fill="#3A0CA3"/>
        <path d="M360 240H480V360H360V240Z" fill="#4CC9F0"/>
        <path d="M480 360C446.863 360 420 333.137 420 300C420 266.863 446.863 240 480 240V300V360Z" fill="#3F37C9"/>
        <path d="M360 360H480V480H360V360Z" fill="#7209B7"/>
        <path d="M360 480H480V600H360V480Z" fill="#B5179E"/>
        <path d="M480 480C480 513.137 453.137 540 420 540C386.863 540 360 513.137 360 480H420H480Z" fill="#560BAD"/>
        <path d="M480 0H540V60H480V0Z" fill="#4CC9F0"/>
        <path d="M540 0H600V60H540V0Z" fill="#3F37C9"/>
        <path d="M600 60H570V0L600 0V60Z" fill="#4361EE"/>
        <path d="M480 60H540V120H480V60Z" fill="#560BAD"/>
        <path d="M480 60H510V120H480V60Z" fill="#3F37C9"/>
        <path d="M540 60H600V120H540V60Z" fill="#4CC9F0"/>
        <path d="M540 120V60L600 120H540Z" fill="#F72585"/>
        <path d="M480 120H600V240H480V120Z" fill="#4895EF"/>
        <path d="M480 240C480 206.863 506.863 180 540 180C573.137 180 600 206.863 600 240H540H480Z" fill="#4361EE"/>
        <path d="M480 240H600V360H480V240Z" fill="#3A0CA3"/>
        <path d="M600 360H540V240H600V360Z" fill="#4CC9F0"/>
        <path d="M480 360H600V480H480V360Z" fill="#3A0CA3"/>
        <path d="M480 360H600L480 480V360Z" fill="#480CA8"/>
        <path d="M480 480H600V600H480V480Z" fill="#3A0CA3"/>
        <path d="M600 480V600L480 480H600Z" fill="#4895EF"/>
        <path d="M0 0H120V120H0V0Z" fill="#4361EE"/>
        <path d="M0 120L0 0L120 120H0Z" fill="#560BAD"/>
        <path d="M0 120H120V240H0V120Z" fill="#480CA8"/>
        <path d="M0 120H60V240H0V120Z" fill="#B5179E"/>
        <path d="M0 240H60V300H0V240Z" fill="#4895EF"/>
        <path d="M60 240V300L0 240H60Z" fill="#4361EE"/>
        <path d="M60 240H120V300H60V240Z" fill="#480CA8"/>
        <path d="M60 300C60 283.431 73.4315 270 90 270C106.569 270 120 283.431 120 300H90H60Z" fill="#B5179E"/>
        <path d="M0 300H60V360H0V300Z" fill="#4895EF"/>
        <path d="M60 300V360L0 300H60Z" fill="#3F37C9"/>
        <path d="M60 300H120V360H60V300Z" fill="#560BAD"/>
        <path d="M120 300C120 316.569 106.569 330 90 330C73.4315 330 60 316.569 60 300H90H120Z" fill="#4361EE"/>
        <path d="M0 360H120V480H0V360Z" fill="#B5179E"/>
        <path d="M0 480L0 420H120V480H0Z" fill="#4361EE"/>
        <path d="M0 480H120V600H0V480Z" fill="#4895EF"/>
        <path d="M120 0H180V60H120V0Z" fill="#4CC9F0"/>
        <path d="M180 0H240V60H180V0Z" fill="#480CA8"/>
        <path d="M120 60H180V120H120V60Z" fill="#F72585"/>
        <path d="M180 60H240V120H180V60Z" fill="#3F37C9"/>
        <path d="M240 120H210V60H240V120Z" fill="#480CA8"/>
        <path d="M120 120H240V240H120V120Z" fill="#B5179E"/>
        <path d="M240 240C206.863 240 180 213.137 180 180C180 146.863 206.863 120 240 120V180V240Z" fill="#4361EE"/>
        <path d="M120 240H240V360H120V240Z" fill="#3A0CA3"/>
        <path d="M120 360H180V420H120V360Z" fill="#4895EF"/>
        <path d="M180 360V390H120V360H180Z" fill="#3A0CA3"/>
        <path d="M180 360H240V420H180V360Z" fill="#480CA8"/>
        <path d="M240 360C240 376.569 226.569 390 210 390C193.431 390 180 376.569 180 360H210H240Z" fill="#4361EE"/>
        <path d="M120 420H180V480H120V420Z" fill="#3F37C9"/>
        <path d="M180 420V480L120 420H180Z" fill="#B5179E"/>
        <path d="M180 420H240V480H180V420Z" fill="#4CC9F0"/>
        <path d="M180 420H240L180 480V420Z" fill="#4895EF"/>
        <path d="M120 480H240V600H120V480Z" fill="#F72585"/>
        <path d="M120 480H240L120 600V480Z" fill="#560BAD"/>
        <path d="M240 0H360V120H240V0Z" fill="#4895EF"/>
        <path d="M240 120H300V180H240V120Z" fill="#B5179E"/>
        <path d="M300 120C300 136.569 286.569 150 270 150C253.431 150 240 136.569 240 120H270H300Z" fill="#4895EF"/>
        <path d="M300 120H360V180H300V120Z" fill="#B5179E"/>
        <path d="M300 180C300 163.431 313.431 150 330 150C346.569 150 360 163.431 360 180H330H300Z" fill="#4895EF"/>
        <path d="M240 180H300V240H240V180Z" fill="#B5179E"/>
        <path d="M300 180H360V240H300V180Z" fill="#B5179E"/>
        <path d="M300 180H360L300 240V180Z" fill="#4361EE"/>
        <path d="M240 240H300V300H240V240Z" fill="#7209B7"/>
        <path d="M300 300H270V240H300V300Z" fill="#4361EE"/>
        <path d="M300 240H360V300H300V240Z" fill="#F72585"/>
        <path d="M300 300V270H360V300H300Z" fill="#4895EF"/>
        <path d="M240 300H300V360H240V300Z" fill="#B5179E"/>
        <path d="M240 360V330H300V360H240Z" fill="#4CC9F0"/>
        <path d="M300 300H360V360H300V300Z" fill="#4CC9F0"/>
        <path d="M300 300H360L300 360V300Z" fill="#480CA8"/>
        <path d="M240 360H360V480H240V360Z" fill="#B5179E"/>
        <path d="M240 360H300V480H240V360Z" fill="#4361EE"/>
        <path d="M240 480H300V540H240V480Z" fill="#B5179E"/>
        <path d="M240 480H270V540H240V480Z" fill="#480CA8"/>
        <path d="M300 480H360V540H300V480Z" fill="#3A0CA3"/>
        <path d="M360 540H300L360 480V540Z" fill="#3F37C9"/>
        <path d="M240 540H300V600H240V540Z" fill="#560BAD"/>
        <path d="M240 600C240 583.431 253.431 570 270 570C286.569 570 300 583.431 300 600H270H240Z" fill="#7209B7"/>
        <path d="M300 540H360V600H300V540Z" fill="#3A0CA3"/>
        <path d="M360 600C343.431 600 330 586.569 330 570C330 553.431 343.431 540 360 540V570V600Z" fill="#560BAD"/>
        <path d="M360 0H420V60H360V0Z" fill="#4CC9F0"/>
        <path d="M360 0H420L360 60V0Z" fill="#B5179E"/>
        <path d="M420 0H480V60H420V0Z" fill="#F72585"/>
        <path d="M420 0H450V60H420V0Z" fill="#480CA8"/>
        <path d="M360 60H420V120H360V60Z" fill="#4895EF"/>
        <path d="M420 60V120L360 60H420Z" fill="#560BAD"/>
        <path d="M420 60H480V120H420V60Z" fill="#3F37C9"/>
        <path d="M360 120H420V180H360V120Z" fill="#F72585"/>
        <path d="M420 120C420 136.569 406.569 150 390 150C373.431 150 360 136.569 360 120H390H420Z" fill="#7209B7"/>
        <path d="M420 120H480V180H420V120Z" fill="#7209B7"/>
        <path d="M420 180V120L480 180H420Z" fill="#3A0CA3"/>
        <path d="M360 180H420V240H360V180Z" fill="#480CA8"/>
        <path d="M420 180H480V240H420V180Z" fill="#4CC9F0"/>
        <path d="M420 240V210H480V240H420Z" fill="#4895EF"/>
        <path d="M360 240H420V300H360V240Z" fill="#4CC9F0"/>
        <path d="M360 300V270H420V300H360Z" fill="#4895EF"/>
        <path d="M420 240H480V300H420V240Z" fill="#4CC9F0"/>
        <path d="M360 300H420V360H360V300Z" fill="#3F37C9"/>
        <path d="M420 360C403.431 360 390 346.569 390 330C390 313.431 403.431 300 420 300V330V360Z" fill="#3A0CA3"/>
        <path d="M420 300H480V360H420V300Z" fill="#480CA8"/>
        <path d="M480 300V360L420 300H480Z" fill="#4CC9F0"/>
        <path d="M360 360H420V420H360V360Z" fill="#3A0CA3"/>
        <path d="M360 420V390H420V420H360Z" fill="#B5179E"/>
        <path d="M420 360H480V420H420V360Z" fill="#560BAD"/>
        <path d="M360 420H420V480H360V420Z" fill="#B5179E"/>
        <path d="M420 420H480V480H420V420Z" fill="#B5179E"/>
        <path d="M480 480H450V420H480V480Z" fill="#7209B7"/>
        <path d="M360 480H480V600H360V480Z" fill="#F72585"/>
        <path d="M360 480C393.137 480 420 506.863 420 540C420 573.137 393.137 600 360 600V540V480Z" fill="#4CC9F0"/>
        <path d="M480 0H600V120H480V0Z" fill="#F72585"/>
        <path d="M480 120H600V240H480V120Z" fill="#480CA8"/>
        <path d="M480 240C480 206.863 506.863 180 540 180C573.137 180 600 206.863 600 240H540H480Z" fill="#3A0CA3"/>
        <path d="M480 240H600V360H480V240Z" fill="#480CA8"/>
        <path d="M600 360H540V240H600V360Z" fill="#3F37C9"/>
        <path d="M480 360H540V420H480V360Z" fill="#560BAD"/>
        <path d="M480 420V360L540 420H480Z" fill="#3A0CA3"/>
        <path d="M540 360H600V420H540V360Z" fill="#4CC9F0"/>
        <path d="M480 420H540V480H480V420Z" fill="#4895EF"/>
        <path d="M540 420H600V480H540V420Z" fill="#4895EF"/>
        <path d="M540 420C556.569 420 570 433.431 570 450C570 466.569 556.569 480 540 480V450V420Z" fill="#480CA8"/>
        <path d="M480 480H540V540H480V480Z" fill="#3F37C9"/>
        <path d="M540 480V540L480 480H540Z" fill="#480CA8"/>
        <path d="M540 480H600V540H540V480Z" fill="#3A0CA3"/>
        <path d="M540 480H600L540 540V480Z" fill="#4CC9F0"/>
        <path d="M480 540H540V600H480V540Z" fill="#480CA8"/>
        <path d="M540 540H600V600H540V540Z" fill="#3A0CA3"/>
        <path d="M600 540V570H540V540H600Z" fill="#4361EE"/>
        <path d="M0 0H120V120H0V0Z" fill="#560BAD"/>
        <path d="M120 120H0L120 0V120Z" fill="#480CA8"/>
        <path d="M0 120H60V180H0V120Z" fill="#F72585"/>
        <path d="M60 120H120V180H60V120Z" fill="#4CC9F0"/>
        <path d="M0 180H60V240H0V180Z" fill="#4895EF"/>
        <path d="M60 240H30V180H60V240Z" fill="#3F37C9"/>
        <path d="M60 180H120V240H60V180Z" fill="#7209B7"/>
        <path d="M120 180V210H60V180H120Z" fill="#4361EE"/>
        <path d="M0 240H60V300H0V240Z" fill="#4CC9F0"/>
        <path d="M60 300C43.4315 300 30 286.569 30 270C30 253.431 43.4315 240 60 240V270V300Z" fill="#F72585"/>
        <path d="M60 240H120V300H60V240Z" fill="#7209B7"/>
        <path d="M0 300H60V360H0V300Z" fill="#7209B7"/>
        <path d="M0 300H60L0 360V300Z" fill="#4895EF"/>
        <path d="M60 300H120V360H60V300Z" fill="#4361EE"/>
        <path d="M120 360H60L120 300V360Z" fill="#560BAD"/>
        <path d="M0 360H60V420H0V360Z" fill="#480CA8"/>
        <path d="M60 360V390H0L0 360H60Z" fill="#3F37C9"/>
        <path d="M60 360H120V420H60V360Z" fill="#7209B7"/>
        <path d="M120 360C120 376.569 106.569 390 90 390C73.4315 390 60 376.569 60 360H90H120Z" fill="#560BAD"/>
        <path d="M0 420H60V480H0V420Z" fill="#4895EF"/>
        <path d="M60 480C43.4315 480 30 466.569 30 450C30 433.431 43.4315 420 60 420V450V480Z" fill="#3A0CA3"/>
        <path d="M60 420H120V480H60V420Z" fill="#480CA8"/>
        <path d="M60 480V420L120 480H60Z" fill="#3F37C9"/>
        <path d="M0 480H60V540H0V480Z" fill="#B5179E"/>
        <path d="M60 480H120V540H60V480Z" fill="#560BAD"/>
        <path d="M120 540C103.431 540 90 526.569 90 510C90 493.431 103.431 480 120 480V510V540Z" fill="#4CC9F0"/>
        <path d="M0 540H60V600H0V540Z" fill="#4361EE"/>
        <path d="M0 600C0 583.431 13.4315 570 30 570C46.5685 570 60 583.431 60 600H30H0Z" fill="#3A0CA3"/>
        <path d="M60 540H120V600H60V540Z" fill="#7209B7"/>
        <path d="M60 600V540L120 600H60Z" fill="#480CA8"/>
        <path d="M120 0H240V120H120V0Z" fill="#B5179E"/>
        <path d="M240 120C206.863 120 180 93.1371 180 60C180 26.8629 206.863 0 240 0V60V120Z" fill="#480CA8"/>
        <path d="M120 120H180V180H120V120Z" fill="#3F37C9"/>
        <path d="M120 180C120 163.431 133.431 150 150 150C166.569 150 180 163.431 180 180H150H120Z" fill="#560BAD"/>
        <path d="M180 120H240V180H180V120Z" fill="#F72585"/>
        <path d="M240 180H210V120H240V180Z" fill="#7209B7"/>
        <path d="M120 180H180V240H120V180Z" fill="#B5179E"/>
        <path d="M180 240H120L180 180V240Z" fill="#F72585"/>
        <path d="M180 180H240V240H180V180Z" fill="#4361EE"/>
        <path d="M240 180C240 196.569 226.569 210 210 210C193.431 210 180 196.569 180 180H210H240Z" fill="#560BAD"/>
        <path d="M120 240H240V360H120V240Z" fill="#4361EE"/>
        <path d="M240 360H180V240H240V360Z" fill="#4CC9F0"/>
        <path d="M120 360H240V480H120V360Z" fill="#4CC9F0"/>
        <path d="M240 360V480L120 360H240Z" fill="#3F37C9"/>
        <path d="M120 480H240V600H120V480Z" fill="#4CC9F0"/>
        <path d="M240 480V600L120 480H240Z" fill="#F72585"/>
        <path d="M240 0H300V60H240V0Z" fill="#B5179E"/>
        <path d="M300 60C283.431 60 270 46.5685 270 30C270 13.4315 283.431 0 300 0V30V60Z" fill="#3A0CA3"/>
        <path d="M300 0H360V60H300V0Z" fill="#3F37C9"/>
        <path d="M360 60H300L360 0V60Z" fill="#3A0CA3"/>
        <path d="M240 60H300V120H240V60Z" fill="#3F37C9"/>
        <path d="M240 60H270V120H240V60Z" fill="#560BAD"/>
        <path d="M300 60H360V120H300V60Z" fill="#4361EE"/>
        <path d="M240 120H360V240H240V120Z" fill="#F72585"/>
        <path d="M240 240H360V360H240V240Z" fill="#3A0CA3"/>
        <path d="M360 360C326.863 360 300 333.137 300 300C300 266.863 326.863 240 360 240V300V360Z" fill="#4CC9F0"/>
        <path d="M240 360H360V480H240V360Z" fill="#4895EF"/>
        <path d="M240 480C240 446.863 266.863 420 300 420C333.137 420 360 446.863 360 480H300H240Z" fill="#4361EE"/>
        <path d="M240 480H360V600H240V480Z" fill="#4CC9F0"/>
        <path d="M360 0H420V60H360V0Z" fill="#B5179E"/>
        <path d="M360 60V0L420 60H360Z" fill="#F72585"/>
        <path d="M420 0H480V60H420V0Z" fill="#B5179E"/>
        <path d="M480 60H420L480 0V60Z" fill="#560BAD"/>
        <path d="M360 60H420V120H360V60Z" fill="#4361EE"/>
        <path d="M360 120C360 103.431 373.431 90 390 90C406.569 90 420 103.431 420 120H390H360Z" fill="#560BAD"/>
        <path d="M420 60H480V120H420V60Z" fill="#560BAD"/>
        <path d="M360 120H420V180H360V120Z" fill="#7209B7"/>
        <path d="M360 180V150H420V180H360Z" fill="#4361EE"/>
        <path d="M420 120H480V180H420V120Z" fill="#4895EF"/>
        <path d="M480 120C480 136.569 466.569 150 450 150C433.431 150 420 136.569 420 120H450H480Z" fill="#4361EE"/>
        <path d="M360 180H420V240H360V180Z" fill="#3A0CA3"/>
        <path d="M360 240V180L420 240H360Z" fill="#4CC9F0"/>
        <path d="M420 180H480V240H420V180Z" fill="#3F37C9"/>
        <path d="M360 240H420V300H360V240Z" fill="#480CA8"/>
        <path d="M360 300V270H420V300H360Z" fill="#4CC9F0"/>
        <path d="M420 240H480V300H420V240Z" fill="#B5179E"/>
        <path d="M480 300H420L480 240V300Z" fill="#7209B7"/>
        <path d="M360 300H420V360H360V300Z" fill="#3F37C9"/>
        <path d="M420 300V330H360V300H420Z" fill="#4CC9F0"/>
        <path d="M420 300H480V360H420V300Z" fill="#4CC9F0"/>
        <path d="M420 300H480L420 360V300Z" fill="#480CA8"/>
        <path d="M360 360H420V420H360V360Z" fill="#3F37C9"/>
        <path d="M420 420H360L420 360V420Z" fill="#B5179E"/>
        <path d="M420 360H480V420H420V360Z" fill="#3A0CA3"/>
        <path d="M480 360V390H420V360H480Z" fill="#3F37C9"/>
        <path d="M360 420H420V480H360V420Z" fill="#4895EF"/>
        <path d="M420 420H480V480H420V420Z" fill="#F72585"/>
        <path d="M480 480H450V420H480V480Z" fill="#560BAD"/>
        <path d="M360 480H420V540H360V480Z" fill="#F72585"/>
        <path d="M420 540H390V480H420V540Z" fill="#3F37C9"/>
        <path d="M420 480H480V540H420V480Z" fill="#3F37C9"/>
        <path d="M480 540H420L480 480V540Z" fill="#F72585"/>
        <path d="M360 540H420V600H360V540Z" fill="#4895EF"/>
        <path d="M360 600C360 583.431 373.431 570 390 570C406.569 570 420 583.431 420 600H390H360Z" fill="#3A0CA3"/>
        <path d="M420 540H480V600H420V540Z" fill="#4CC9F0"/>
        <path d="M480 600H420L480 540V600Z" fill="#B5179E"/>
        <path d="M480 0H600V120H480V0Z" fill="#3F37C9"/>
        <path d="M480 0H540V120H480V0Z" fill="#4CC9F0"/>
        <path d="M480 120H600V240H480V120Z" fill="#F72585"/>
        <path d="M480 240C480 206.863 506.863 180 540 180C573.137 180 600 206.863 600 240H540H480Z" fill="#B5179E"/>
        <path d="M480 240H600V360H480V240Z" fill="#4CC9F0"/>
        <path d="M480 240C513.137 240 540 266.863 540 300C540 333.137 513.137 360 480 360V300V240Z" fill="#7209B7"/>
        <path d="M480 360H540V420H480V360Z" fill="#B5179E"/>
        <path d="M480 420C480 403.431 493.431 390 510 390C526.569 390 540 403.431 540 420H510H480Z" fill="#F72585"/>
        <path d="M540 360H600V420H540V360Z" fill="#7209B7"/>
        <path d="M600 420C583.431 420 570 406.569 570 390C570 373.431 583.431 360 600 360V390V420Z" fill="#B5179E"/>
        <path d="M480 420H540V480H480V420Z" fill="#3A0CA3"/>
        <path d="M480 420C496.569 420 510 433.431 510 450C510 466.569 496.569 480 480 480V450V420Z" fill="#B5179E"/>
        <path d="M540 420H600V480H540V420Z" fill="#480CA8"/>
        <path d="M540 420H600L540 480V420Z" fill="#4361EE"/>
        <path d="M480 480H600V600H480V480Z" fill="#4361EE"/>
        <path d="M480 600C480 566.863 506.863 540 540 540C573.137 540 600 566.863 600 600H540H480Z" fill="#7209B7"/>
    </g>
    <defs>
        <clipPath id="clip0_2_21393">
            <rect width="600" height="600" fill="white"/>
        </clipPath>
    </defs>
</svg>
